<svg width="100" height="100" viewBox="0 0 100 100" fill="none" xmlns="http://www.w3.org/2000/svg">
<path d="M98.2937 14.4317C96.1436 8.52215 91.4904 3.8845 85.5808 1.73444C80.1275 -0.0249941 75.1648 -0.0249939 65.0895 -0.0249939H34.8323C24.8383 -0.0249939 19.7912 -0.0249941 14.4223 1.63443C8.49714 3.80013 3.84387 8.47215 1.70943 14.3942C0 19.8131 0 24.8102 0 34.8042V65.0958C0 75.1398 0 80.1025 1.65943 85.5214C3.80949 91.431 8.46276 96.0686 14.3723 98.2187C19.7912 99.9281 24.7883 99.9281 34.798 99.9281H65.1208C75.1648 99.9281 80.1619 99.9281 85.5464 98.2687C91.4716 96.1186 96.1436 91.4497 98.2906 85.5246C100 80.1056 100 75.1086 100 65.0989V34.8886C100 24.8445 100 19.8475 98.2906 14.4286L98.2937 14.4317ZM72.5929 33.7354L68.7021 37.6106C67.9209 38.3262 66.7177 38.3418 65.9177 37.6418C62.1582 34.4855 57.4049 32.7417 52.5048 32.726C48.4515 32.726 44.4139 34.0604 44.4139 37.7731C44.4139 41.5169 48.7421 42.7701 53.7392 44.642C62.4957 47.5734 69.7397 51.2329 69.7397 59.8112C69.7397 69.1553 62.4957 75.568 50.6641 76.268L49.5734 81.2807C49.3765 82.2244 48.5484 82.8932 47.589 82.8932H40.1169L39.7419 82.862C38.6356 82.6182 37.9356 81.5119 38.1637 80.4056L39.3356 75.1148C34.8417 73.9929 30.7103 71.7304 27.3227 68.5709V68.5209C26.5415 67.7396 26.5415 66.4708 27.3227 65.6896L31.4885 61.6519C32.2854 60.9207 33.5073 60.9207 34.2886 61.6519C38.0824 65.2333 43.1607 67.2334 48.4171 67.1521C53.8361 67.1521 57.4518 64.8583 57.4518 61.2269C57.4518 57.5956 53.7892 56.6518 46.8733 54.0642C39.5325 51.4422 32.5823 47.7327 32.5823 39.0575C32.5823 28.9822 40.9482 24.0664 50.8766 23.6101L51.9172 18.4818C52.1141 17.5381 52.9579 16.8693 53.9204 16.888H61.3269L61.7488 16.938C62.8238 17.1818 63.5395 18.2224 63.2957 19.3131L62.1738 25.0258C65.9177 26.2633 69.4647 28.2321 72.4929 30.8041L72.5898 30.901C73.371 31.7322 73.371 32.9854 72.5898 33.7323L72.5929 33.7354Z" fill="#EFEFEF"/>
</svg>
